<svg width="115" height="115" viewBox="0 0 115 115" fill="none" xmlns="http://www.w3.org/2000/svg">
<path d="M67.3475 71.282C66.8084 70.8688 66.2873 70.9047 65.8022 70.9945C64.6342 71.2102 63.4483 71.4258 62.2983 71.7133C57.878 72.8273 53.5655 74.2648 49.235 75.6664C44.7608 77.1039 40.3225 78.6133 35.8303 80.0148C32.6498 81.0031 29.4334 81.8836 26.217 82.7461C25.085 83.0516 23.935 83.3211 22.7311 83.1594C21.8147 83.0336 21.0959 82.4586 20.9701 81.7039C20.8803 81.1828 21.042 80.6797 21.3295 80.2664C21.7608 79.6555 22.2819 79.0984 22.785 78.5594C23.0725 78.2539 23.4139 77.9844 23.7733 77.6609C23.5037 78.2359 23.2342 78.7391 23.0545 79.2422C22.8569 79.7813 22.9467 80.0328 23.4678 80.2664C23.8991 80.4641 24.3842 80.5719 24.8514 80.5898C26.5045 80.6258 28.1037 80.3024 29.703 79.907C32.9194 79.0984 36.028 77.9305 39.1545 76.8344C45.803 74.4984 52.4155 72.0547 59.1358 69.9703C62.2084 69.018 65.2811 68.1375 68.4436 67.5266C70.1506 67.2031 71.8756 66.8797 73.6186 67.0774C74.0139 67.1133 74.4092 67.2031 74.7686 67.3469C75.667 67.6883 75.8826 68.3352 75.2537 69.0539C74.7326 69.6469 74.1397 70.2039 73.4748 70.6352C71.9295 71.6414 70.3483 72.6117 68.7311 73.4742C64.778 75.5586 60.7889 77.5531 56.8358 79.6555C54.9131 80.6797 53.0803 81.8477 51.2116 82.9977C50.7444 83.2852 50.3491 83.7164 49.9178 84.0938C49.7741 84.2375 49.6303 84.4172 49.5405 84.5969C49.217 85.1899 49.3967 85.6031 50.0616 85.675C50.7264 85.7289 51.4092 85.7469 52.0561 85.6211C54.0326 85.2258 56.0092 84.8305 57.9319 84.2734C63.5201 82.6742 69.0725 81.0031 74.6428 79.35C79.153 78.0203 83.6631 76.7625 88.2631 75.7742C90.8686 75.2172 93.492 74.75 96.1514 74.5703C97.9662 74.4445 99.7631 74.4805 101.488 75.1094C102.027 75.307 102.584 75.5586 103.069 75.882C103.986 76.493 104.183 77.3375 103.752 78.3617C103.357 79.3141 102.674 80.0508 101.991 80.7875C101.219 81.6141 100.41 82.4047 99.6373 83.2492C99.4217 83.4828 99.242 83.7523 99.0983 84.0219C98.7748 84.6508 98.8826 85.0102 99.5834 85.2258C100.122 85.3875 100.697 85.4234 101.255 85.4953C101.434 85.5133 101.632 85.4953 101.812 85.5492C101.362 85.8367 100.823 85.8547 100.32 85.8906C99.3858 85.9625 98.4334 85.9625 97.4991 85.9445C97.1397 85.9445 96.7623 85.8008 96.403 85.657C95.5405 85.3336 95.0733 84.6149 95.1272 83.6984C95.1631 83.2313 95.253 82.7461 95.4147 82.2969C95.6483 81.65 95.9897 81.0391 96.2592 80.4102C96.7264 79.368 96.4569 78.8469 95.3248 78.7211C94.66 78.6492 93.9772 78.6133 93.3123 78.7031C91.5694 78.9367 89.8264 79.1703 88.1014 79.5297C81.7405 80.8414 75.5233 82.7461 69.2522 84.4352C65.1912 85.5313 61.1123 86.6273 57.0334 87.6336C54.0686 88.3703 51.0678 88.9813 47.9772 89.0891C46.8451 89.125 45.767 88.9453 44.7248 88.4961C43.1256 87.8313 42.8022 86.6453 43.8264 85.2258C44.5631 84.2195 45.4975 83.4109 46.5037 82.6742C48.9295 80.8953 51.5889 79.5117 54.3022 78.2C57.86 76.475 61.4178 74.6961 64.9576 72.9172C65.5326 72.6297 66.0717 72.2523 66.6108 71.893C66.8444 71.7313 67.042 71.5156 67.3295 71.2641L67.3475 71.282Z" fill="#459AAB"/>
<path d="M31.6258 48.7672C34.2312 49.45 36.7469 50.007 38.9031 51.8219C38.7054 52.5766 38.5617 53.2953 38.3461 53.9961C37.4476 56.943 36.6031 59.9258 35.5969 62.8367C35.2015 63.9687 34.8961 65.1367 34.5008 66.2687C33.9976 67.7062 33.3687 68.1914 31.4101 69.6289C29.8828 70.743 28.3914 71.9828 27.0078 73.2945C26.307 73.9594 25.6242 74.6422 24.9773 75.3609C24.6898 75.6844 24.3844 76.0437 24.0789 76.3492C23.9351 76.493 23.7375 76.6727 23.3961 77.05C23.3601 76.4391 23.3242 76.0078 23.3242 75.5586C23.3242 72.5039 23.414 69.4492 23.2703 66.4125C23.1984 64.7414 23.7195 63.3398 24.4742 61.9742C24.9773 61.0758 25.5164 60.2133 26.0015 59.2969C27.6367 56.1703 29.2359 53.0437 30.8711 49.9172C31.0687 49.5219 31.3562 49.1625 31.6078 48.7852L31.6258 48.7672ZM28.014 62.7469C27.7445 63.3219 28.032 63.6273 27.8883 64.2023C27.6187 65.2625 26.9719 66.8437 26.6484 67.8859C26.3609 68.8203 26.1094 69.7547 25.8758 70.6891C26.3969 69.6828 26.9539 68.4969 27.2234 67.8141C27.5289 67.0234 27.8703 66.3227 28.2656 65.568C28.4453 65.2086 28.5711 64.8312 28.7687 64.4719C28.9664 64.1125 29.3797 63.9867 29.6672 63.7172C29.9906 63.4297 29.9726 62.9805 29.739 62.5852C29.5234 62.2437 29.0742 62.082 28.6789 62.1898C28.3375 62.2797 28.1398 62.4773 28.032 62.7289L28.014 62.7469Z" fill="#28637F"/>
<path d="M7.29492 38.7586C7.43867 38.0578 8.94805 37.7883 9.55898 37.6445C16.423 35.9016 23.4309 34.3922 30.0254 31.7867C30.5105 31.5891 30.9957 31.3734 31.5348 31.4273C31.9301 31.4813 32.1816 31.7508 32.002 32.1461C31.8582 32.4336 31.5707 32.6133 31.2652 32.7211C25.2277 34.9672 19.2262 37.3391 13.1527 39.4953C12.9012 39.5852 12.6676 39.7648 12.2902 39.9984C12.398 39.9266 15.309 43.7 15.5965 44.0414C16.7105 45.425 17.8066 46.8086 18.8848 48.2102C21.1488 51.157 23.1973 54.2297 25.2816 57.2844C25.8746 58.1469 24.527 57.8773 24.1496 57.5719C23.7004 57.2125 23.3949 56.6734 23.0176 56.2602C22.5684 55.757 22.1371 55.2359 21.7059 54.7328C20.7895 53.6187 19.9629 52.4148 18.9746 51.3727C16.9262 49.1984 14.8598 47.0422 12.7754 44.9039C11.8051 43.8977 10.8168 42.9094 9.86445 41.9031C9.10977 41.1125 7.45664 40.1063 7.31289 38.9563C7.31289 38.8844 7.31289 38.8305 7.31289 38.7586H7.29492Z" fill="#829DA9"/>
<path d="M52.3258 25.9109C52.1102 26.7016 52.0203 27.2586 51.8047 27.7617C50.0078 31.8586 48.175 35.9555 46.3602 40.0523C45.8031 41.2922 45.318 42.568 44.7789 43.8617L40.8438 41.1125C41.257 40.0703 41.5445 39.0102 42.0836 38.0758C43.7367 35.1109 45.2641 32.0562 47.3125 29.343C48.3547 27.9594 49.5766 26.6656 51.2836 26.0367C51.4813 25.9648 51.7328 25.9828 52.3258 25.9109V25.9109Z" fill="#28637F"/>
<path d="M40.9147 52.5945C39.7826 49.5039 36.5303 48.4797 33.6373 47.6711C32.8467 47.4555 31.8764 47.2039 31.0498 47.4555C30.7623 47.5453 30.9959 47.4734 29.7022 47.9047C29.6483 47.9227 29.7381 47.4016 29.792 47.2398C30.2233 45.7305 30.6186 44.2031 31.2834 42.8016C31.4631 42.4062 31.8045 42.0469 32.1459 41.7953C32.6131 41.4359 32.8467 41.5258 33.9248 41.6336C33.6733 42.9273 33.0264 43.8617 33.242 45.5328L36.3326 46.6289C36.9795 46.8625 37.5006 47.0422 38.0756 46.5031C38.399 46.1977 39.6029 43.143 39.9803 43.2867C41.31 43.8258 42.4061 44.7062 43.4123 45.9102C43.2147 48.2461 41.885 50.2047 40.9326 52.5945H40.9147Z" fill="#28637F"/>
<path d="M3.28906 48.4797C3.36094 48.2102 3.79219 48.1023 4.07969 47.9227C4.52891 47.6531 4.97812 47.3656 5.44531 47.1141C6.75703 46.4312 8.08672 45.7664 9.41641 45.0836C9.66797 44.9578 9.9375 44.8141 10.225 44.7781C11.1055 44.6703 11.1055 45.2992 10.6562 45.8023C10.2969 46.2156 9.82969 46.557 9.3625 46.8625C9.20078 46.9703 7.24219 48.318 7.42188 48.4617C10.243 50.4922 13.0461 52.4508 15.7953 54.4992C17.3227 55.6492 18.868 56.7813 20.3414 58.0211C21.2758 58.8117 22.282 59.5305 23.0008 60.5367C23.4141 61.1117 23.6656 61.9383 22.6594 61.7766C22.3539 61.7227 22.1023 61.543 21.8688 61.3453C21.2758 60.8242 20.6648 60.3391 20.0359 59.8719C19.6766 59.6023 19.2992 59.3688 18.9398 59.1172C18.7781 58.9914 18.1672 58.3445 18.0055 58.3445C17.1969 57.7516 16.3883 57.1766 15.5617 56.6016C14.807 56.0805 13.7828 55.6313 13.1539 54.9844C11.4469 53.9063 9.68594 52.9359 7.94297 51.9117C7.08047 51.3906 6.23594 50.8695 5.40937 50.2945C4.72656 49.8273 3.93594 49.5937 3.43281 48.893C3.30703 48.7133 3.27109 48.5695 3.30703 48.4617L3.28906 48.4797Z" fill="#829DA9"/>
<path d="M37.087 27.3844C37.4823 27.4383 37.3566 27.9773 37.3386 28.2289C37.1589 30.2953 36.6378 32.3617 36.1706 34.3922C35.7933 36.0094 35.3441 37.6266 34.6792 39.1539C34.6253 39.2617 34.5175 39.3336 34.3917 39.3336C34.1042 39.3336 33.8706 39.3336 33.637 39.3336C33.4753 39.3336 33.1878 39.2797 32.9003 39.2258C32.7386 39.2078 32.6128 39.0461 32.6488 38.8664C32.7027 38.6148 32.7925 38.3992 32.8644 38.2016C34.1761 34.6617 35.2902 31.05 36.7636 27.5641C36.8175 27.4383 36.9433 27.3664 37.087 27.3844V27.3844Z" fill="#28637F"/>
<path d="M56.1695 46.7008H54.6242V50.4922H51.5156V39.2797H56.1695C58.9547 39.2797 60.3742 40.8609 60.3742 43.0172C60.3742 44.9758 59.0266 46.7008 56.1695 46.7008ZM55.8641 44.2211C56.7984 44.2211 57.1758 43.7359 57.1758 43.0172C57.1758 42.2984 56.7984 41.7953 55.8641 41.7953H54.6242V44.2211H55.8641Z" fill="#28637F"/>
<path d="M66.6281 39.2617C69.4133 39.2617 70.8148 40.8609 70.8148 42.8555C70.8148 44.3109 70.0242 45.5867 68.3531 46.1078L70.8867 50.4742H67.4008L65.1727 46.3414H64.8313V50.4742H61.7227V39.2617H66.6281ZM66.3766 41.8672H64.8313V44.2031H66.3766C67.2211 44.2031 67.6523 43.7898 67.6523 43.0172C67.6523 42.3164 67.2211 41.8492 66.3766 41.8492V41.8672Z" fill="#28637F"/>
<path d="M79.4742 41.7594H75.4133V43.5922H78.9891V45.9641H75.4133V47.9766H79.4742V50.4742H72.3047V39.2617H79.4742V41.7594V41.7594Z" fill="#28637F"/>
<path d="M85.3336 50.582C82.8359 50.582 80.8953 49.3961 80.7695 46.9883H84.0937C84.1656 47.8328 84.6508 48.1203 85.2258 48.1203C85.8008 48.1203 86.2141 47.8328 86.2141 47.3117C86.2141 45.5148 80.7516 46.3594 80.8055 42.4602C80.8055 40.268 82.6383 39.082 85.0102 39.082C87.5797 39.082 89.2688 40.3398 89.3766 42.568H85.9805C85.9445 41.8672 85.5133 41.5438 84.9383 41.5438C84.4711 41.5438 84.1117 41.7953 84.1117 42.3344C84.1117 44.0055 89.5023 43.4664 89.5023 47.0602C89.5023 49.0367 87.975 50.582 85.3156 50.582H85.3336Z" fill="#28637F"/>
<path d="M90.418 39.2617H99.4922V41.7414H96.5094V50.4742H93.4008V41.7414H90.4359V39.2617H90.418Z" fill="#28637F"/>
<path d="M107.829 48.6414H103.858L103.247 50.4742H99.9766L104.055 39.2617H107.649L111.728 50.4742H108.44L107.829 48.6414V48.6414ZM105.834 42.6219L104.648 46.2516H107.056L105.852 42.6219H105.834Z" fill="#28637F"/>
<path d="M55.3625 63.8609C53.1344 63.8609 51.5531 62.6211 51.5352 60.7883H53.0805C53.1703 61.7047 53.8352 62.6391 55.3625 62.6391C56.7641 62.6391 57.5906 61.8484 57.5906 60.7883C57.5906 57.8055 51.5891 59.7102 51.5891 55.5953C51.5891 53.7625 53.0625 52.5227 55.2547 52.5227C57.4469 52.5227 58.7586 53.6906 58.9203 55.3617H57.3211C57.2312 54.607 56.5305 53.7625 55.1828 53.7625C53.9969 53.7266 53.0445 54.3555 53.0445 55.5414C53.0445 58.3984 59.0281 56.6195 59.0281 60.7344C59.0281 62.3156 57.7344 63.8609 55.3445 63.8609H55.3625Z" fill="#459AAB"/>
<path d="M61.3457 52.6664H62.8012V63.7531H61.3457V52.6664V52.6664Z" fill="#459AAB"/>
<path d="M75.5406 55.8828H73.8156C73.2047 54.5891 72.0008 53.8523 70.4375 53.8523C68.1016 53.8523 66.3586 55.5414 66.3586 58.2188C66.3586 60.8961 68.1016 62.5672 70.4375 62.5672C72.6117 62.5672 74.1031 61.1656 74.3367 58.9734H69.9164V57.7875H75.882V58.9016C75.6305 61.6508 73.4563 63.8609 70.4375 63.8609C67.4188 63.8609 64.8672 61.543 64.8672 58.2188C64.8672 54.8945 67.3109 52.5586 70.4375 52.5586C72.7734 52.5586 74.7141 53.7625 75.5406 55.9008V55.8828Z" fill="#459AAB"/>
<path d="M86.6645 52.6484V63.7531H85.209L79.3871 54.9305V63.7531H77.9316V52.6484H79.3871L85.209 61.4531V52.6484H86.6645V52.6484Z" fill="#459AAB"/>
</svg>
