<svg width="110" height="110" viewBox="0 0 110 110" fill="none" xmlns="http://www.w3.org/2000/svg">
<path d="M64.4179 68.1828C63.9023 67.7875 63.4038 67.8219 62.9398 67.9078C61.8226 68.1141 60.6882 68.3203 59.5882 68.5953C55.3601 69.6609 51.2351 71.0359 47.0929 72.3766C42.8132 73.7516 38.5679 75.1953 34.271 76.5359C31.2288 77.4812 28.1523 78.3234 25.0757 79.1484C23.9929 79.4406 22.8929 79.6984 21.7413 79.5437C20.8648 79.4234 20.1773 78.8734 20.057 78.1516C19.971 77.6531 20.1257 77.1719 20.4007 76.7766C20.8132 76.1922 21.3116 75.6594 21.7929 75.1437C22.0679 74.8516 22.3945 74.5937 22.7382 74.2844C22.4804 74.8344 22.2226 75.3156 22.0507 75.7969C21.8616 76.3125 21.9476 76.5531 22.446 76.7766C22.8585 76.9656 23.3226 77.0687 23.7695 77.0859C25.3507 77.1203 26.8804 76.8109 28.4101 76.4328C31.4866 75.6594 34.4601 74.5422 37.4507 73.4937C43.8101 71.2594 50.1351 68.9219 56.5632 66.9281C59.5023 66.0172 62.4413 65.175 65.4663 64.5906C67.0991 64.2812 68.7492 63.9719 70.4163 64.1609C70.7945 64.1953 71.1726 64.2812 71.5163 64.4187C72.3757 64.7453 72.582 65.3641 71.9804 66.0516C71.482 66.6187 70.9148 67.1516 70.2788 67.5641C68.8007 68.5266 67.2882 69.4547 65.7413 70.2797C61.9601 72.2734 58.1445 74.1812 54.3632 76.1922C52.5241 77.1719 50.771 78.2891 48.9835 79.3891C48.5366 79.6641 48.1585 80.0766 47.746 80.4375C47.6085 80.575 47.471 80.7469 47.3851 80.9187C47.0757 81.4859 47.2476 81.8812 47.8835 81.95C48.5195 82.0016 49.1726 82.0187 49.7913 81.8984C51.682 81.5203 53.5726 81.1422 55.4117 80.6094C60.757 79.0797 66.0679 77.4812 71.396 75.9C75.7101 74.6281 80.0242 73.425 84.4242 72.4797C86.9163 71.9469 89.4257 71.5 91.9695 71.3281C93.7054 71.2078 95.4242 71.2422 97.0742 71.8437C97.5898 72.0328 98.1226 72.2734 98.5867 72.5828C99.4632 73.1672 99.6523 73.975 99.2398 74.9547C98.8617 75.8656 98.2085 76.5703 97.5554 77.275C96.8163 78.0656 96.0429 78.8219 95.3038 79.6297C95.0976 79.8531 94.9257 80.1109 94.7882 80.3687C94.4788 80.9703 94.582 81.3141 95.2523 81.5203C95.7679 81.675 96.3179 81.7094 96.8507 81.7781C97.0226 81.7953 97.2117 81.7781 97.3835 81.8297C96.9538 82.1047 96.4382 82.1219 95.957 82.1562C95.0632 82.225 94.1523 82.225 93.2585 82.2078C92.9148 82.2078 92.5538 82.0703 92.2101 81.9328C91.3851 81.6234 90.9382 80.9359 90.9898 80.0594C91.0242 79.6125 91.1101 79.1484 91.2648 78.7187C91.4882 78.1 91.8148 77.5156 92.0726 76.9141C92.5195 75.9172 92.2617 75.4187 91.1788 75.2984C90.5429 75.2297 89.8898 75.1953 89.2538 75.2812C87.5867 75.5047 85.9195 75.7281 84.2695 76.0719C78.1851 77.3266 72.2382 79.1484 66.2398 80.7641C62.3554 81.8125 58.4538 82.8609 54.5523 83.8234C51.7163 84.5281 48.846 85.1125 45.8898 85.2156C44.807 85.25 43.7757 85.0781 42.7788 84.6484C41.2491 84.0125 40.9398 82.8781 41.9195 81.5203C42.6241 80.5578 43.5179 79.7844 44.4804 79.0797C46.8007 77.3781 49.3445 76.0547 51.9398 74.8C55.3429 73.15 58.746 71.4484 62.132 69.7469C62.682 69.4719 63.1976 69.1109 63.7132 68.7672C63.9366 68.6125 64.1257 68.4062 64.4007 68.1656L64.4179 68.1828Z" fill="white"/>
<path d="M30.2505 46.6469C32.7427 47.3 35.1489 47.8328 37.2114 49.5688C37.0223 50.2906 36.8848 50.9781 36.6786 51.6484C35.8192 54.4672 35.0114 57.3203 34.0489 60.1047C33.6708 61.1875 33.3786 62.3047 33.0005 63.3875C32.5192 64.7625 31.9177 65.2266 30.0442 66.6016C28.5833 67.6672 27.1567 68.8531 25.8333 70.1078C25.163 70.7438 24.5098 71.3969 23.8911 72.0844C23.6161 72.3938 23.3239 72.7375 23.0317 73.0297C22.8942 73.1672 22.7052 73.3391 22.3786 73.7C22.3442 73.1156 22.3098 72.7031 22.3098 72.2734C22.3098 69.3516 22.3958 66.4297 22.2583 63.525C22.1895 61.9266 22.688 60.5859 23.4098 59.2797C23.8911 58.4203 24.4067 57.5953 24.8708 56.7188C26.4348 53.7281 27.9645 50.7375 29.5286 47.7469C29.7177 47.3688 29.9927 47.025 30.2333 46.6641L30.2505 46.6469ZM26.7958 60.0188C26.538 60.5688 26.813 60.8609 26.6755 61.4109C26.4177 62.425 25.7989 63.9375 25.4895 64.9344C25.2145 65.8281 24.9739 66.7219 24.7505 67.6156C25.2489 66.6531 25.7817 65.5188 26.0395 64.8656C26.3317 64.1094 26.6583 63.4391 27.0364 62.7172C27.2083 62.3734 27.3286 62.0125 27.5177 61.6688C27.7067 61.325 28.102 61.2047 28.377 60.9469C28.6864 60.6719 28.6692 60.2422 28.4458 59.8641C28.2395 59.5375 27.8098 59.3828 27.4317 59.4859C27.1052 59.5719 26.9161 59.7609 26.813 60.0016L26.7958 60.0188Z" fill="white"/>
<path d="M6.97852 37.0734C7.11602 36.4031 8.55977 36.1453 9.14414 36.0078C15.7098 34.3406 22.4129 32.8969 28.7207 30.4047C29.1848 30.2156 29.6488 30.0094 30.1645 30.0609C30.5426 30.1125 30.7832 30.3703 30.6113 30.7484C30.4738 31.0234 30.1988 31.1953 29.9066 31.2984C24.1316 33.4469 18.391 35.7156 12.5816 37.7781C12.341 37.8641 12.1176 38.0359 11.7566 38.2594C11.8598 38.1906 14.6441 41.8 14.9191 42.1266C15.9848 43.45 17.0332 44.7734 18.0645 46.1141C20.2301 48.9328 22.1895 51.8719 24.1832 54.7937C24.7504 55.6187 23.4613 55.3609 23.1004 55.0687C22.6707 54.725 22.3785 54.2094 22.0176 53.8141C21.5879 53.3328 21.1754 52.8344 20.7629 52.3531C19.8863 51.2875 19.0957 50.1359 18.1504 49.1391C16.191 47.0594 14.2145 44.9969 12.2207 42.9516C11.2926 41.9891 10.3473 41.0437 9.43633 40.0812C8.71445 39.325 7.1332 38.3625 6.9957 37.2625C6.9957 37.1937 6.9957 37.1422 6.9957 37.0734H6.97852Z" fill="white"/>
<path d="M50.0492 24.7844C49.843 25.5406 49.757 26.0734 49.5508 26.5547C47.832 30.4734 46.0789 34.3922 44.343 38.3109C43.8102 39.4969 43.3461 40.7172 42.8305 41.9547L39.0664 39.325C39.4617 38.3281 39.7367 37.3141 40.2523 36.4203C41.8336 33.5844 43.2945 30.6625 45.2539 28.0672C46.2508 26.7438 47.4195 25.5063 49.0523 24.9047C49.2414 24.8359 49.482 24.8531 50.0492 24.7844V24.7844Z" fill="white"/>
<path d="M39.1354 50.3078C38.0526 47.3516 34.9417 46.3719 32.1745 45.5984C31.4182 45.3922 30.4901 45.1516 29.6995 45.3922C29.4245 45.4781 29.6479 45.4094 28.4104 45.8219C28.3589 45.8391 28.4448 45.3406 28.4964 45.1859C28.9089 43.7422 29.287 42.2812 29.9229 40.9406C30.0948 40.5625 30.4214 40.2187 30.7479 39.9781C31.1948 39.6344 31.4182 39.7203 32.4495 39.8234C32.2089 41.0609 31.5901 41.9547 31.7964 43.5531L34.7526 44.6016C35.3714 44.825 35.8698 44.9969 36.4198 44.4812C36.7292 44.1891 37.8807 41.2672 38.2417 41.4047C39.5136 41.9203 40.562 42.7625 41.5245 43.9141C41.3354 46.1484 40.0636 48.0219 39.1526 50.3078H39.1354Z" fill="white"/>
<path d="M3.14453 46.3719C3.21328 46.1141 3.62578 46.0109 3.90078 45.8391C4.33047 45.5812 4.76016 45.3062 5.20703 45.0656C6.46172 44.4125 7.73359 43.7766 9.00547 43.1234C9.24609 43.0031 9.50391 42.8656 9.77891 42.8312C10.6211 42.7281 10.6211 43.3297 10.1914 43.8109C9.84766 44.2062 9.40078 44.5328 8.95391 44.825C8.79922 44.9281 6.92578 46.2172 7.09766 46.3547C9.79609 48.2969 12.4773 50.1703 15.107 52.1297C16.568 53.2297 18.0461 54.3125 19.4555 55.4984C20.3492 56.2547 21.3117 56.9422 21.9992 57.9047C22.3945 58.4547 22.6352 59.2453 21.6727 59.0906C21.3805 59.0391 21.1398 58.8672 20.9164 58.6781C20.3492 58.1797 19.7648 57.7156 19.1633 57.2687C18.8195 57.0109 18.4586 56.7875 18.1148 56.5469C17.9602 56.4266 17.3758 55.8078 17.2211 55.8078C16.4477 55.2406 15.6742 54.6906 14.8836 54.1406C14.1617 53.6422 13.182 53.2125 12.5805 52.5937C10.9477 51.5625 9.26328 50.6344 7.59609 49.6547C6.77109 49.1562 5.96328 48.6578 5.17266 48.1078C4.51953 47.6609 3.76328 47.4375 3.28203 46.7672C3.16172 46.5953 3.12734 46.4578 3.16172 46.3547L3.14453 46.3719Z" fill="white"/>
<path d="M35.4758 26.1937C35.854 26.2453 35.7336 26.7609 35.7165 27.0016C35.5446 28.9781 35.0461 30.9547 34.5993 32.8969C34.2383 34.4437 33.8086 35.9906 33.1727 37.4516C33.1211 37.5547 33.018 37.6234 32.8977 37.6234C32.6227 37.6234 32.3993 37.6234 32.1758 37.6234C32.0211 37.6234 31.7461 37.5719 31.4711 37.5203C31.3165 37.5031 31.1961 37.3484 31.2305 37.1766C31.2821 36.9359 31.368 36.7297 31.4368 36.5406C32.6915 33.1547 33.7571 29.7 35.1665 26.3656C35.218 26.2453 35.3383 26.1766 35.4758 26.1937V26.1937Z" fill="white"/>
<path d="M53.7289 44.6703H52.2508V48.2969H49.2773V37.5719H53.7289C56.393 37.5719 57.7508 39.0844 57.7508 41.1469C57.7508 43.0203 56.4617 44.6703 53.7289 44.6703ZM53.4367 42.2984C54.3305 42.2984 54.6914 41.8344 54.6914 41.1469C54.6914 40.4594 54.3305 39.9781 53.4367 39.9781H52.2508V42.2984H53.4367Z" fill="white"/>
<path d="M63.7313 37.5547C66.3953 37.5547 67.7359 39.0844 67.7359 40.9922C67.7359 42.3844 66.9797 43.6047 65.3813 44.1031L67.8047 48.2797H64.4703L62.3391 44.3266H62.0125V48.2797H59.0391V37.5547H63.7313ZM63.4906 40.0469H62.0125V42.2812H63.4906C64.2984 42.2812 64.7109 41.8859 64.7109 41.1469C64.7109 40.4766 64.2984 40.0297 63.4906 40.0297V40.0469Z" fill="white"/>
<path d="M76.0219 39.9437H72.1375V41.6969H75.5578V43.9656H72.1375V45.8906H76.0219V48.2797H69.1641V37.5547H76.0219V39.9437V39.9437Z" fill="white"/>
<path d="M81.6234 48.3828C79.2344 48.3828 77.3781 47.2484 77.2578 44.9453H80.4375C80.5062 45.7531 80.9703 46.0281 81.5203 46.0281C82.0703 46.0281 82.4656 45.7531 82.4656 45.2547C82.4656 43.5359 77.2406 44.3437 77.2922 40.6141C77.2922 38.5172 79.0453 37.3828 81.3141 37.3828C83.7719 37.3828 85.3875 38.5859 85.4906 40.7172H82.2422C82.2078 40.0469 81.7953 39.7375 81.2453 39.7375C80.7984 39.7375 80.4547 39.9781 80.4547 40.4937C80.4547 42.0922 85.6109 41.5766 85.6109 45.0141C85.6109 46.9047 84.15 48.3828 81.6062 48.3828H81.6234Z" fill="white"/>
<path d="M86.4883 37.5547H95.168V39.9266H92.3148V48.2797H89.3414V39.9266H86.5055V37.5547H86.4883Z" fill="white"/>
<path d="M103.144 46.5266H99.3453L98.7609 48.2797H95.6328L99.5344 37.5547H102.972L106.873 48.2797H103.728L103.144 46.5266V46.5266ZM101.236 40.7687L100.102 44.2406H102.405L101.253 40.7687H101.236Z" fill="white"/>
<path d="M52.9539 61.0844C50.8227 61.0844 49.3102 59.8984 49.293 58.1453H50.7711C50.857 59.0219 51.493 59.9156 52.9539 59.9156C54.2945 59.9156 55.0852 59.1594 55.0852 58.1453C55.0852 55.2922 49.3445 57.1141 49.3445 53.1781C49.3445 51.425 50.7539 50.2391 52.8508 50.2391C54.9477 50.2391 56.2023 51.3562 56.357 52.9547H54.8273C54.7414 52.2328 54.0711 51.425 52.782 51.425C51.6477 51.3906 50.7367 51.9922 50.7367 53.1266C50.7367 55.8594 56.4602 54.1578 56.4602 58.0937C56.4602 59.6062 55.2227 61.0844 52.9367 61.0844H52.9539Z" fill="white"/>
<path d="M58.6777 50.3766H60.0699V60.9812H58.6777V50.3766V50.3766Z" fill="white"/>
<path d="M72.2563 53.4531H70.6063C70.0219 52.2156 68.8703 51.5109 67.375 51.5109C65.1406 51.5109 63.4734 53.1266 63.4734 55.6875C63.4734 58.2484 65.1406 59.8469 67.375 59.8469C69.4547 59.8469 70.8813 58.5063 71.1047 56.4094H66.8766V55.275H72.5828V56.3406C72.3422 58.9703 70.2625 61.0844 67.375 61.0844C64.4875 61.0844 62.0469 58.8672 62.0469 55.6875C62.0469 52.5078 64.3844 50.2734 67.375 50.2734C69.6094 50.2734 71.4656 51.425 72.2563 53.4703V53.4531Z" fill="white"/>
<path d="M82.8941 50.3594V60.9812H81.502L75.9332 52.5422V60.9812H74.541V50.3594H75.9332L81.502 58.7813V50.3594H82.8941V50.3594Z" fill="white"/>
</svg>
